<?xml version="1.0" encoding="UTF-8"?>
<svg version="1.1" xmlns="http://www.w3.org/2000/svg" width="764" height="104">
<path d="M0 0 C252.12 0 504.24 0 764 0 C764 34.32 764 68.64 764 104 C511.88 104 259.76 104 0 104 C0 69.68 0 35.36 0 0 Z " fill="#FBFCFC" transform="translate(0,0)"/>
<path d="M0 0 C6.46533521 4.52454398 10.24898585 9.77180915 11.74609375 17.609375 C12.00266242 21.12191361 11.97973038 24.61641412 11.94140625 28.13671875 C11.93857635 29.12563614 11.93574646 30.11455353 11.93283081 31.13343811 C11.92169517 34.27137695 11.89660278 37.40902339 11.87109375 40.546875 C11.8610554 42.68293857 11.85193105 44.81900664 11.84375 46.95507812 C11.8217775 52.1732886 11.78729339 57.39128234 11.74609375 62.609375 C5.80609375 62.609375 -0.13390625 62.609375 -6.25390625 62.609375 C-6.25390625 58.649375 -6.25390625 54.689375 -6.25390625 50.609375 C-13.51390625 50.609375 -20.77390625 50.609375 -28.25390625 50.609375 C-28.25390625 54.569375 -28.25390625 58.529375 -28.25390625 62.609375 C-34.52390625 62.609375 -40.79390625 62.609375 -47.25390625 62.609375 C-47.32304249 56.5074617 -47.38269696 50.40692555 -47.41870117 44.30493164 C-47.43372146 42.23229346 -47.45414372 40.15968671 -47.48022461 38.0871582 C-47.51690649 35.09578664 -47.5337006 32.1048379 -47.546875 29.11328125 C-47.56235886 28.19728653 -47.57784271 27.28129181 -47.59379578 26.33753967 C-47.59634404 16.43843983 -44.83532194 8.99667833 -38.25390625 1.609375 C-27.55520145 -8.80778494 -11.93784992 -7.36546719 0 0 Z " fill="#163E61" transform="translate(351.25390625,23.390625)"/>
<path d="M0 0 C1.093125 0.721875 2.18625 1.44375 3.3125 2.1875 C9.65977889 8.83000116 11.60700979 15.71294416 11.5859375 24.77929688 C11.54339844 26.46635742 11.54339844 26.46635742 11.5 28.1875 C11.50386719 29.89196289 11.50386719 29.89196289 11.5078125 31.63085938 C11.39079007 41.6655331 9.1841205 47.48355894 2.32421875 54.9140625 C-4.75040049 61.26338464 -12.84072223 63.37173659 -22.1171875 63.28515625 C-26.61623572 62.84012845 -30.09825762 61.1956864 -34 59 C-35.051875 58.443125 -36.10375 57.88625 -37.1875 57.3125 C-43.33320743 52.25936278 -47.7043963 44.8707925 -49 37 C-50.01387 24.58914491 -49.72643657 13.77578523 -41.58984375 3.7890625 C-31.26004509 -7.83513353 -12.69188322 -8.44561545 0 0 Z " fill="#153C61" transform="translate(223,24)"/>
<path d="M0 0 C0.7528125 0.01160156 1.505625 0.02320312 2.28125 0.03515625 C11.56332449 0.3095828 16.46612784 2.8524321 23.484375 8.94921875 C29.86465498 16.3968764 30.16196845 23.27183829 30 32.875 C30.00708984 34.05964844 30.01417969 35.24429688 30.02148438 36.46484375 C29.95477044 45.67136704 28.75836114 52.80991995 22.3671875 59.7734375 C15.5321395 65.83917274 7.20702116 68.85207175 -1.85546875 68.62109375 C-10.30451342 67.81581415 -17.40630984 64.00984554 -22.9765625 57.60546875 C-28.57941172 50.08585532 -28.83063874 43.37028031 -28.875 34.1875 C-28.90787109 33.00607422 -28.94074219 31.82464844 -28.97460938 30.60742188 C-29.02830817 21.79593768 -27.57450135 14.82964673 -21.44702148 8.23168945 C-15.11290358 2.20118907 -8.63756024 -0.16996988 0 0 Z " fill="#3CBEB0" transform="translate(723.4375,18.625)"/>
<path d="M0 0 C1.35611315 0.01005369 2.71223355 0.0191753 4.06835938 0.02734375 C7.35815064 0.05075863 10.64784924 0.08662429 13.9375 0.125 C13.9375 5.735 13.9375 11.345 13.9375 17.125 C11.98585938 17.16238281 10.03421875 17.19976562 8.0234375 17.23828125 C5.45310597 17.30394665 2.88279432 17.37039379 0.3125 17.4375 C-0.97269531 17.46005859 -2.25789063 17.48261719 -3.58203125 17.50585938 C-5.44794922 17.5590332 -5.44794922 17.5590332 -7.3515625 17.61328125 C-8.49318848 17.63946533 -9.63481445 17.66564941 -10.81103516 17.69262695 C-14.50412387 18.18372623 -16.94100366 19.09599854 -20.0625 21.125 C-20.3925 22.445 -20.7225 23.765 -21.0625 25.125 C-9.5125 25.125 2.0375 25.125 13.9375 25.125 C13.9375 30.735 13.9375 36.345 13.9375 42.125 C2.3875 42.125 -9.1625 42.125 -21.0625 42.125 C-18.73998574 47.00995525 -18.73998574 47.00995525 -16.0625 48.125 C-13.81275839 48.27995763 -11.55878464 48.37510928 -9.3046875 48.44140625 C-8.64163605 48.46218735 -7.97858459 48.48296844 -7.29544067 48.50437927 C-5.17623306 48.56979231 -3.056901 48.62872105 -0.9375 48.6875 C0.49871081 48.73069309 1.93490902 48.77430764 3.37109375 48.81835938 C6.89310344 48.92625909 10.41520688 49.02539243 13.9375 49.125 C13.9375 55.065 13.9375 61.005 13.9375 67.125 C9.59743019 67.26417088 5.26534456 67.38310533 0.92480469 67.45458984 C-0.54551664 67.48443268 -2.01566525 67.52512433 -3.48535156 67.57763672 C-14.37880839 67.95660418 -23.48742431 66.99361594 -32.05297852 59.34838867 C-40.29290888 50.62336456 -41.44744849 40.89260292 -41.27734375 29.40625 C-40.99431773 21.3619825 -38.80078822 13.96320866 -33.0625 8.125 C-22.98235203 -0.36664216 -12.73417925 -0.16317825 0 0 Z " fill="#194063" transform="translate(468.0625,18.875)"/>
<path d="M0 0 C7.61795877 4.12639433 11.76257914 9.10202695 14.4375 17.3203125 C14.93970633 21.12795121 14.9070271 24.86405715 14.828125 28.69921875 C14.82246521 29.75189438 14.81680542 30.80457001 14.81097412 31.8891449 C14.78874884 35.22084824 14.73857768 38.5514393 14.6875 41.8828125 C14.66741714 44.15428124 14.64916951 46.425767 14.6328125 48.69726562 C14.58892933 54.23870378 14.51999774 59.77932016 14.4375 65.3203125 C8.4975 65.3203125 2.5575 65.3203125 -3.5625 65.3203125 C-3.56660889 63.97807617 -3.57071777 62.63583984 -3.57495117 61.25292969 C-3.59672313 56.27288411 -3.65099318 51.29363081 -3.71508789 46.31396484 C-3.73828472 44.15876865 -3.75266754 42.00345882 -3.75805664 39.84814453 C-3.76733371 36.74960377 -3.80829787 33.65285443 -3.85546875 30.5546875 C-3.8515361 29.59101257 -3.84760345 28.62733765 -3.84355164 27.63446045 C-3.89725726 22.13262392 -3.89725726 22.13262392 -6.95043945 17.71166992 C-9.76105505 16.21454886 -11.40029367 15.80869829 -14.5625 15.8828125 C-15.3875 15.88410156 -16.2125 15.88539062 -17.0625 15.88671875 C-20.43292884 16.4712775 -21.9660458 17.0150668 -24.5625 19.3203125 C-25.35859508 22.75252506 -25.28346623 26.16528933 -25.26953125 29.67578125 C-25.28465256 30.69255447 -25.29977386 31.7093277 -25.31535339 32.75691223 C-25.3583733 36.0074354 -25.36708239 39.25703251 -25.375 42.5078125 C-25.39813311 44.71031133 -25.42349596 46.91278795 -25.45117188 49.11523438 C-25.51416581 54.51700946 -25.54638939 59.91820231 -25.5625 65.3203125 C-31.8325 65.3203125 -38.1025 65.3203125 -44.5625 65.3203125 C-44.66184204 58.79162974 -44.73419256 52.2633931 -44.78222656 45.73413086 C-44.802264 43.51595387 -44.82950173 41.29782918 -44.86425781 39.07983398 C-44.91312253 35.87991378 -44.93554812 32.68069576 -44.953125 29.48046875 C-44.97377014 28.49885269 -44.99441528 27.51723663 -45.01568604 26.50587463 C-45.01856466 17.54678326 -42.34484972 10.47840469 -36.27734375 3.82421875 C-26.53840095 -4.71676753 -11.46430202 -4.87915235 0 0 Z " fill="#173F62" transform="translate(150.5625,20.6796875)"/>
<path d="M0 0 C28.14480284 -2.94758858 28.14480284 -2.94758858 36.59765625 3.50390625 C40.25011773 6.94425213 43.38356474 10.71995175 46.34570312 14.76367188 C50.26763639 20.06545888 54.77098522 24.91214984 59.5 29.5 C62.9288279 32.88241399 66.12048518 36.38070442 69.25390625 40.03515625 C71.7235936 42.81424514 74.37903322 45.38860496 77.02734375 47.99609375 C79.57337829 50.58246151 81.92021557 53.3153528 84.28515625 56.06640625 C85.96004299 57.95494597 87.69947587 59.73155648 89.5 61.5 C92.56263586 64.50806774 95.3596064 67.68322381 98.15625 70.9375 C100.80690809 73.90264295 103.64169678 76.66585779 106.49609375 79.43359375 C108 81 108 81 108 82 C77.93896512 84.25751639 77.93896512 84.25751639 71.37890625 79.28125 C68.32246657 76.20656425 66.21337183 72.70924592 64 69 C62.37599808 67.29173383 60.70990034 65.62228123 59 64 C57.46651129 62.34497003 55.94540932 60.67836864 54.4375 59 C53.69371094 58.175 52.94992187 57.35 52.18359375 56.5 C50.75896117 54.86893587 49.37336339 53.202689 48.03515625 51.5 C45.83686643 48.7996056 43.49264227 46.43362428 41 44 C38.03705463 41.06713901 35.08142371 38.12693277 32.125 35.1875 C31.34769531 34.41857422 30.57039062 33.64964844 29.76953125 32.85742188 C25.51163758 28.61741851 21.43668877 24.29539048 17.51904297 19.73950195 C15.61044153 17.55390484 13.58210361 15.51995126 11.5 13.5 C7.46724267 9.51566342 3.52708365 5.44571315 0 1 C0 0.67 0 0.34 0 0 Z " fill="#3BBDB1" transform="translate(489,4)"/>
<path d="M0 0 C1.27037109 -0.0299707 1.27037109 -0.0299707 2.56640625 -0.06054688 C11.26879734 -0.05388348 17.85474017 3.02089194 24.51953125 8.484375 C30.13643165 15.31758716 30.68651446 21.40736512 30.515625 29.9375 C30.50996521 31.01378662 30.50430542 32.09007324 30.49847412 33.19897461 C30.47621234 36.61228265 30.42603352 40.02451309 30.375 43.4375 C30.35492189 45.76170351 30.33667342 48.0859236 30.3203125 50.41015625 C30.27638073 56.08634814 30.20742276 61.76174182 30.125 67.4375 C24.185 67.4375 18.245 67.4375 12.125 67.4375 C12.12089111 66.10050049 12.11678223 64.76350098 12.11254883 63.38598633 C12.09075458 58.41896164 12.03646117 53.45272877 11.97241211 48.48608398 C11.94923478 46.33772376 11.93483703 44.18924996 11.92944336 42.04077148 C11.92015209 38.94963827 11.87915649 35.86029088 11.83203125 32.76953125 C11.8359639 31.81101761 11.83989655 30.85250397 11.84394836 29.86494446 C11.74256111 25.21675059 11.64129858 23.10579621 8.72338867 19.32885742 C5.27111315 16.81595894 3.39779432 16.83704166 -0.71875 17.0703125 C-3.63289339 17.56656156 -5.58967114 18.5806703 -7.875 20.4375 C-9.03925976 22.76601952 -9.02957992 24.20030184 -9.08032227 26.79541016 C-9.10026749 27.69619293 -9.12021271 28.59697571 -9.14076233 29.52505493 C-9.16583107 30.98605118 -9.16583107 30.98605118 -9.19140625 32.4765625 C-9.21218735 33.47255463 -9.23296844 34.46854675 -9.25437927 35.49472046 C-9.31989042 38.68390854 -9.37876704 41.87318058 -9.4375 45.0625 C-9.48068373 47.22136293 -9.52429797 49.3802173 -9.56835938 51.5390625 C-9.67557342 56.8384551 -9.77683648 62.13793234 -9.875 67.4375 C-15.815 67.4375 -21.755 67.4375 -27.875 67.4375 C-27.974196 60.46325791 -28.04662462 53.48943044 -28.09472656 46.51464844 C-28.11478826 44.14413291 -28.14204426 41.77366655 -28.17675781 39.40332031 C-28.22551418 35.98750649 -28.24802399 32.57234945 -28.265625 29.15625 C-28.28627014 28.10385132 -28.30691528 27.05145264 -28.32818604 25.96716309 C-28.33043642 18.51537412 -27.12743415 13.29644867 -22.19921875 7.44921875 C-21.38904297 6.79373047 -21.38904297 6.79373047 -20.5625 6.125 C-20.03011719 5.67511719 -19.49773438 5.22523437 -18.94921875 4.76171875 C-12.59677943 0.70620664 -7.40975691 -0.06146857 0 0 Z " fill="#143B5F" transform="translate(65.875,18.5625)"/>
<path d="M0 0 C5.94 0 11.88 0 18 0 C21.33152501 7.07296921 23.770422 14.21947709 26.0625 21.6875 C26.7361431 23.88036869 27.41438966 26.07182951 28.09765625 28.26171875 C28.53863647 29.69970825 28.53863647 29.69970825 28.98852539 31.16674805 C30.09159843 34.25657732 31.48101092 37.09493675 33 40 C33.41886475 38.82381104 33.83772949 37.64762207 34.26928711 36.43579102 C35.81883825 32.08694896 37.37210275 27.73944112 38.92651367 23.39233398 C39.59973478 21.50793266 40.27193784 19.62316732 40.94311523 17.73803711 C41.90603765 15.03403727 42.87257109 12.33135247 43.83984375 9.62890625 C44.14091537 8.78099014 44.441987 7.93307404 44.75218201 7.0594635 C46.88612829 1.11387171 46.88612829 1.11387171 48 0 C49.34267413 -0.08631874 50.68974322 -0.10706473 52.03515625 -0.09765625 C52.84404297 -0.09443359 53.65292969 -0.09121094 54.48632812 -0.08789062 C55.33646484 -0.07951172 56.18660156 -0.07113281 57.0625 -0.0625 C57.91650391 -0.05798828 58.77050781 -0.05347656 59.65039062 -0.04882812 C61.76695663 -0.03700373 63.88348685 -0.01906769 66 0 C65.4052651 3.25875036 64.632404 6.28985216 63.49707031 9.40039062 C63.19295227 10.23896606 62.88883423 11.0775415 62.57550049 11.94152832 C62.24636658 12.83738647 61.91723267 13.73324463 61.578125 14.65625 C61.2362616 15.59496948 60.89439819 16.53368896 60.54217529 17.50085449 C59.81756676 19.48849108 59.09122683 21.4754972 58.36328125 23.46191406 C57.26456121 26.46026322 56.17084702 29.46039791 55.078125 32.4609375 C53.68729162 36.27702964 52.2864096 40.08918661 50.87695312 43.8984375 C49.73769314 46.97782622 48.62221802 50.06248908 47.54492188 53.1640625 C47.13306641 54.31648438 46.72121094 55.46890625 46.296875 56.65625 C45.79945801 58.09194336 45.79945801 58.09194336 45.29199219 59.55664062 C43.38316121 63.16653866 40.61509978 65.19245011 37 67 C32.08880623 67.60846649 28.27050384 67.88382876 24.125 65 C19.97584146 59.14236442 17.65760442 53.30625091 15.70703125 46.421875 C14.9021535 43.66483518 13.91255619 40.99523724 12.87890625 38.31640625 C11.73004608 35.28852145 10.64814814 32.23860287 9.5625 29.1875 C8.01039534 24.82948841 6.45352924 20.4735154 4.875 16.125 C4.55789062 15.25101563 4.24078125 14.37703125 3.9140625 13.4765625 C3.05177107 11.14026862 2.15299346 8.82077757 1.25 6.5 C0 3 0 3 0 0 Z " fill="#143B60" transform="translate(236,19)"/>
<path d="M0 0 C18.81 0 37.62 0 57 0 C57 5.61 57 11.22 57 17 C50.4 17 43.8 17 37 17 C37 33.17 37 49.34 37 66 C31.39 66 25.78 66 20 66 C20 49.83 20 33.66 20 17 C13.4 17 6.8 17 0 17 C0 11.39 0 5.78 0 0 Z " fill="#133B5F" transform="translate(367,19)"/>
<path d="M0 0 C3.35613886 -0.16283153 6.70430351 -0.28128289 10.0625 -0.375 C11.47692383 -0.45041016 11.47692383 -0.45041016 12.91992188 -0.52734375 C17.97245004 -0.63297152 21.16463105 -0.42810538 25.12109375 2.8984375 C27.60975337 5.34509285 28.94643359 6.89513594 29.12025452 10.4803772 C29.1169236 12.04590836 29.1169236 12.04590836 29.11352539 13.64306641 C29.11344986 14.82413971 29.11337433 16.00521301 29.11329651 17.22207642 C29.10813522 18.50230682 29.10297394 19.78253723 29.09765625 21.1015625 C29.0962413 22.40829926 29.09482635 23.71503601 29.09336853 25.06137085 C29.08954894 28.53676258 29.07972342 32.01211257 29.06866455 35.48748779 C29.05843843 39.03331945 29.05386833 42.57915785 29.04882812 46.125 C29.03810066 53.08335222 29.02050836 60.04166981 29 67 C23.06 67 17.12 67 11 67 C11 50.5 11 34 11 17 C7.37 17 3.74 17 0 17 C0 11.39 0 5.78 0 0 Z " fill="#3BBDB0" transform="translate(630,19)"/>
<path d="M0 0 C5.94 0 11.88 0 18 0 C18 22.11 18 44.22 18 67 C12.06 67 6.12 67 0 67 C0 44.89 0 22.78 0 0 Z " fill="#163C5E" transform="translate(9,19)"/>
<path d="M0 0 C1.48046875 1.46875 1.48046875 1.46875 3.1875 3.5 C3.80109375 4.221875 4.4146875 4.94375 5.046875 5.6875 C6.01367188 6.8321875 6.01367188 6.8321875 7 8 C8.30962265 9.50251281 9.62197391 11.00265323 10.9375 12.5 C11.95833333 13.66666667 12.97916667 14.83333333 14 16 C12.61824988 17.65810015 11.22651745 19.30856851 9.79492188 20.92382812 C7.98214838 22.95874153 7.98214838 22.95874153 6.47070312 25.12304688 C3.45096118 28.8689233 1.26800925 30.76995984 -3.55273438 31.64453125 C-7.71063721 31.88451447 -11.84422562 31.69991472 -16 31.5 C-17.45693306 31.45980874 -18.91397315 31.42331786 -20.37109375 31.390625 C-23.91631158 31.30309638 -27.45746226 31.16542022 -31 31 C-29.34505714 26.73294513 -26.15086959 23.8628007 -22.96875 20.703125 C-22.37703003 20.10949158 -21.78531006 19.51585815 -21.17565918 18.90423584 C-19.92734419 17.65456282 -18.67651177 16.40740008 -17.42333984 15.16259766 C-15.49992003 13.24992048 -13.58743901 11.32676881 -11.67578125 9.40234375 C-10.46157861 8.18946202 -9.24675607 6.97720048 -8.03125 5.765625 C-7.45725464 5.18758118 -6.88325928 4.60953735 -6.29187012 4.01397705 C-2.22993434 0 -2.22993434 0 0 0 Z " fill="#38C0B4" transform="translate(521,55)"/>
<path d="M0 0 C-1.27321659 2.79934525 -2.57523633 4.81197577 -4.78515625 6.9453125 C-5.58083008 7.72455078 -5.58083008 7.72455078 -6.39257812 8.51953125 C-6.94365234 9.04933594 -7.49472656 9.57914063 -8.0625 10.125 C-12.0044894 13.69553366 -12.0044894 13.69553366 -15 18 C-15.66 18 -16.32 18 -17 18 C-17.24492188 18.57234375 -17.48984375 19.1446875 -17.7421875 19.734375 C-19.21110099 22.38024402 -20.95348244 24.14853139 -23.125 26.25 C-23.84945312 26.95640625 -24.57390625 27.6628125 -25.3203125 28.390625 C-25.87460937 28.92171875 -26.42890625 29.4528125 -27 30 C-31.25314786 28.32357676 -34.12101814 25.2824091 -37.3125 22.125 C-37.87517578 21.59519531 -38.43785156 21.06539062 -39.01757812 20.51953125 C-40.61328125 18.9453125 -40.61328125 18.9453125 -43 16 C-42.32306242 10.52149724 -38.59479719 6.13313282 -34.62890625 2.53125 C-25.82666207 -3.56794282 -10.15900695 -0.75466909 0 0 Z " fill="#3ABEB2" transform="translate(594,4)"/>
<path d="M0 0 C1.1034375 -0.01546875 2.206875 -0.0309375 3.34375 -0.046875 C6.77111111 0.81844884 8.47827635 1.94532893 10.58007812 4.81103516 C12.40722796 8.66220926 12.13454804 12.63233714 12 16.8125 C12.00386719 18.13991211 12.00386719 18.13991211 12.0078125 19.49414062 C11.93500999 24.34642789 11.70963412 27.86184465 8.5 31.75 C4.44184834 34.36525329 1.30855413 35.45124748 -3.5 34.75 C-7.48967664 32.60171258 -9.82866895 30.9592427 -11.5 26.75 C-11.95797741 23.46934908 -11.9160096 20.1845213 -11.9375 16.875 C-11.97037109 15.98941406 -12.00324219 15.10382812 -12.03710938 14.19140625 C-12.07203278 9.93075094 -11.95629651 6.67574369 -9.37890625 3.1640625 C-5.97464566 0.30947221 -4.39550764 -0.06161927 0 0 Z " fill="#F7F9F9" transform="translate(204.5,35.25)"/>
<path d="M0 0 C3.04588789 0.51098777 5.01398374 1.40633003 7.375 3.3984375 C10.27091497 7.74230995 9.78141314 11.66137576 9.8125 16.7734375 C9.86180664 18.19269531 9.86180664 18.19269531 9.91210938 19.640625 C9.94885714 24.39779005 9.96227337 26.64023415 6.97265625 30.5 C2.48238621 33.78161088 -1.14635044 34.10810713 -6.625 33.3984375 C-9.49529869 31.60450082 -11.11631638 30.41580474 -12.625 27.3984375 C-12.94427202 23.98909728 -12.94933113 20.57088937 -13 17.1484375 C-13.03738281 16.20613281 -13.07476563 15.26382813 -13.11328125 14.29296875 C-13.16956161 9.83431392 -13.17684858 6.40991611 -10.4140625 2.76171875 C-6.64451889 -0.43236232 -4.72718815 -0.29544926 0 0 Z " fill="#FAFDFC" transform="translate(725.625,35.6015625)"/>
<path d="M0 0 C2.125 1.6875 2.125 1.6875 4.125 4.6875 C4.26769866 7.2988854 4.31272704 9.77127289 4.25 12.375 C4.20875 14.788125 4.1675 17.20125 4.125 19.6875 C-3.465 19.6875 -11.055 19.6875 -18.875 19.6875 C-19.28276699 5.14381068 -19.28276699 5.14381068 -15.875 0.6875 C-10.96432063 -2.25890762 -5.13010524 -2.34200457 0 0 Z " fill="#F2F4F5" transform="translate(340.875,37.3125)"/>
<path d="M0 0 C6.27 0 12.54 0 19 0 C19 5.94 19 11.88 19 18 C12.73 18 6.46 18 0 18 C0 12.06 0 6.12 0 0 Z " fill="#42C3B6" transform="translate(670,68)"/>
<path d="M0 0 C0.66 0.33 1.32 0.66 2 1 C0.68 2.32 -0.64 3.64 -2 5 C14.335 5.495 14.335 5.495 31 6 C31 6.33 31 6.66 31 7 C19.45 7 7.9 7 -4 7 C-3.67 5.35 -3.34 3.7 -3 2 C-2.01 1.34 -1.02 0.68 0 0 Z " fill="#D9E0E4" transform="translate(451,37)"/>
<path d="M0 0 C0.99 0.33 1.98 0.66 3 1 C1.8125 3.5 1.8125 3.5 0 6 C-2.6875 6.3125 -2.6875 6.3125 -5 6 C-3.35 4.02 -1.7 2.04 0 0 Z " fill="#33CDBA" transform="translate(495,79)"/>
</svg>
